<svg data-noselect="" viewBox="0 0 400 300" width="400" height="300" preserveAspectRatio="none" version="1.1" xmlns="http://www.w3.org/2000/svg" style="background: rgba(255, 255, 255, 0);"><defs></defs> <g id="shape_4t9waM5Ozn" transform="translate(135.1528384279476,39.301310043668124) rotate(0,0,0) scale(1.3100436681222707,1.3100436681222707)" filter="" style="cursor: move; opacity: 1;"><g><rect fill="rgba(0,0,0,0)" width="119" height="119" x="-10" y="-10"></rect><svg xmlns="http://www.w3.org/2000/svg" xmlns:xlink="http://www.w3.org/1999/xlink" shape-rendering="auto" text-rendering="auto" width="99" contentscripttype="text/ecmascript" color-rendering="auto" color-interpolation="auto" xml:space="preserve" preserveAspectRatio="none" viewBox="0 0 99.916 99.765" image-rendering="auto" zoomAndPan="magnify" version="1.1" contentstyletype="text/css" x="0px" enable-background="new 0 0 99.916 99.765" height="99" y="0px" data-parent="shape_4t9waM5Ozn">
 <g fill="#00AFEC" id="layer2">
  <path d="M54.404,54.585c-2.193,3.428-5,6.694-9.344,9.475C27.709,75.157,20.792,85.262,26.027,87.978   C43.497,87.552,47.097,71.056,54.404,54.585z"></path>
  <path d="M70.889,8.787c0.003,0,0.003,0,0.007,0c-16.26-9.017-35.83-7.479-51.141,4.489   C3.228,27.144-1.382,48.888,7.308,67.533c0.511,1.003,11.808,4.552,21.752-4.845c6.322-5.974,10.318-13.397,13.584-20.808   C49.863,25.507,53.525,9.208,70.889,8.787z"></path>
 </g>
 <g fill="#F39800" id="layer1">
  <path d="M89.607,29.229c-0.509-1-11.805-4.553-21.751,4.845c-6.237,5.895-10.208,13.201-13.452,20.512   c-7.307,16.471-10.907,32.967-28.377,33.393c-0.003,0-0.004,0-0.008,0c16.262,9.016,35.831,7.48,51.142-4.49   C93.689,69.62,98.297,47.876,89.607,29.229z"></path>
  <path d="M70.889,8.787c-17.364,0.421-21.026,16.72-28.245,33.094c2.221-3.332,5.021-6.497,9.211-9.177   C69.204,21.606,76.121,11.501,70.889,8.787z"></path>
 </g>
 <!--Copyright (c) Logomaker.com.cn  @2015-05-30-->
</svg></g> <!----></g><g id="shapge_wsPysrrBXx" transform="translate(143.0131004366812,176.85589519650654) rotate(0,0,0) scale(1.3100436681222707,1.3100436681222707)" filter="" style="cursor: move; opacity: 1;"><g><svg xmlns="http://www.w3.org/2000/svg" version="1.1" xmlns:xlink="http://www.w3.org/1999/xlink" overflow="hidden" style="top:0; left: 0" width="87" height="34" viewBox="0 0 87 34.104" preserveAspectRatio="none" data-parent="shapge_wsPysrrBXx"><rect fill="rgba(0,0,0,0)" width="87" height="34"></rect> <rect opacity="0"></rect><g transform="translate(0 0)" data-width="87"><path fill="#00AFEC" d="M8.61-23.78L8.61-23.78L10.59-22.77L10.59-22.77Q9.31-20.53 7.48-18.42L7.48-18.42L7.48-18.42Q8.55-16.10 8.89-13.66L8.89-13.66L8.89-13.66Q9.22-11.22 9.22-8.64L9.22-8.64L9.22-8.64Q9.22-5.48 8.92-2.86L8.92-2.86L8.92-2.86Q8.61-0.23 7.71 1.02L7.71 1.02L7.71 1.02Q7.16 1.80 6.09 1.97L6.09 1.97L6.09 1.97Q4.55 2.23 2.70 2.12L2.70 2.12L2.70 2.12Q2.64 0.99 2.06-0.03L2.06-0.03L2.06-0.03Q4.15 0.12 5.19 0L5.19 0L5.19 0Q5.80-0.06 6.12-0.52L6.12-0.52L6.12-0.52Q6.67-1.28 6.89-3.58L6.89-3.58L6.89-3.58Q7.11-5.89 7.11-8.70L7.11-8.70L7.11-9.45L7.11-9.45Q4.99-6.47 2.58-4.52L2.58-4.52L2.58-4.52Q2.32-4.96 1.90-5.44L1.90-5.44L1.90-5.44Q1.48-5.92 1.04-6.24L1.04-6.24L1.04-6.24Q2.67-7.34 4.25-9.11L4.25-9.11L4.25-9.11Q5.83-10.88 6.87-12.79L6.87-12.79L6.87-12.79Q6.64-14.79 5.92-16.70L5.92-16.70L5.92-16.70Q4.38-15.20 2.73-13.89L2.73-13.89L2.73-13.89Q2.44-14.24 2.00-14.65L2.00-14.65L2.00-14.65Q1.57-15.05 1.19-15.34L1.19-15.34L1.19-15.34Q3.16-16.79 4.93-18.73L4.93-18.73L4.93-18.73Q3.77-20.73 1.65-22.59L1.65-22.59L3.22-23.81L3.22-23.81Q5.16-22.19 6.35-20.36L6.35-20.36L6.35-20.36Q7.71-22.13 8.61-23.78ZM17.86-15.28L13.63-15.28L13.63-11.69L17.86-11.69L17.86-15.28ZM17.86-20.71L13.63-20.71L13.63-17.14L17.86-17.14L17.86-20.71ZM19.92-17.14L24.21-17.14L24.21-20.71L19.92-20.71L19.92-17.14ZM19.92-11.69L24.21-11.69L24.21-15.28L19.92-15.28L19.92-11.69ZM20.10-4.64L20.10-0.75L27.75-0.75L27.75 1.33L9.57 1.33L9.57-0.75L17.72-0.75L17.72-4.64L11.17-4.64L11.17-6.70L17.72-6.70L17.72-9.71L11.54-9.71L11.54-22.65L26.36-22.65L26.36-9.71L20.10-9.71L20.10-6.70L26.65-6.70L26.65-4.64L20.10-4.64Z" transform="translate(0 25.52)"></path><path fill="#00AFEC" d="M10.90-16.94L8.76-16.94L8.76-19.40L1.83-19.40L1.83-21.49L8.76-21.49L8.76-24.27L10.90-24.27L10.90-21.49L18.21-21.49L18.21-24.27L20.39-24.27L20.39-21.49L27.14-21.49L27.14-19.40L20.39-19.40L20.39-16.76L18.21-16.76L18.21-19.40L10.90-19.40L10.90-16.94ZM8.90-16.30L8.90-16.30L10.99-15.66L10.99-15.66Q9.92-13.54 8.50-11.57L8.50-11.57L8.50 2.20L6.32 2.20L6.32-8.87L6.32-8.87Q4.87-7.28 3.36-6.06L3.36-6.06L3.36-6.06Q3.05-6.38 2.52-6.82L2.52-6.82L2.52-6.82Q2.00-7.25 1.59-7.57L1.59-7.57L1.59-7.57Q6.18-10.96 8.90-16.30ZM18.97-0.32L18.97-0.32L23.98-0.32L23.98-0.32Q25.00-0.32 25.32-1.19L25.32-1.19L25.32-1.19Q25.64-2.06 25.72-4.79L25.72-4.79L25.72-4.79Q26.13-4.47 26.69-4.22L26.69-4.22L26.69-4.22Q27.26-3.97 27.75-3.86L27.75-3.86L27.75-3.86Q27.58-0.64 26.85 0.57L26.85 0.57L26.85 0.57Q26.13 1.77 24.13 1.77L24.13 1.77L18.79 1.77L18.79 1.77Q16.62 1.77 15.86 1.04L15.86 1.04L15.86 1.04Q15.11 0.32 15.11-1.77L15.11-1.77L15.11-6.18L15.11-6.18Q13.31-5.37 11.51-4.61L11.51-4.61L11.51-4.61Q11.40-4.99 11.15-5.45L11.15-5.45L11.15-5.45Q10.90-5.92 10.67-6.26L10.67-6.26L10.67-6.26Q12.88-7.19 15.11-8.27L15.11-8.27L15.11-16.18L17.26-16.18L17.26-9.37L17.26-9.37Q21.69-11.69 24.62-13.98L24.62-13.98L26.19-12.27L26.19-12.27Q22.42-9.66 17.26-7.19L17.26-7.19L17.26-1.74L17.26-1.74Q17.26-0.87 17.57-0.59L17.57-0.59L17.57-0.59Q17.89-0.32 18.97-0.32Z" transform="translate(29 25.52)"></path><path fill="#00AFEC" d="M8.50-23.66L8.50-23.66L10.15-22.39L10.15-22.39Q9.05-20.50 7.48-18.71L7.48-18.71L7.48-18.71Q8.67-16.36 9.03-13.85L9.03-13.85L9.03-13.85Q9.40-11.34 9.40-8.73L9.40-8.73L9.40-8.73Q9.40-5.66 9.09-3.07L9.09-3.07L9.09-3.07Q8.79-0.49 7.95 0.75L7.95 0.75L7.95 0.75Q7.37 1.51 6.32 1.68L6.32 1.68L6.32 1.68Q4.84 1.94 3.05 1.80L3.05 1.80L3.05 1.80Q3.05 0.78 2.44-0.26L2.44-0.26L2.44-0.26Q4.50-0.15 5.45-0.23L5.45-0.23L5.45-0.23Q6.06-0.29 6.38-0.75L6.38-0.75L6.38-0.75Q6.90-1.51 7.12-3.76L7.12-3.76L7.12-3.76Q7.34-6.00 7.34-8.76L7.34-8.76L7.34-8.76Q7.34-9.51 7.31-10.24L7.31-10.24L7.31-10.24Q5.16-7.02 2.64-4.90L2.64-4.90L2.64-4.90Q2.38-5.31 1.99-5.77L1.99-5.77L1.99-5.77Q1.59-6.24 1.19-6.53L1.19-6.53L1.19-6.53Q2.84-7.66 4.42-9.53L4.42-9.53L4.42-9.53Q6.00-11.40 7.02-13.46L7.02-13.46L7.02-13.46Q6.76-15.34 6.00-17.14L6.00-17.14L6.00-17.14Q4.35-15.49 2.49-14.15L2.49-14.15L2.49-14.15Q2.26-14.50 1.87-14.91L1.87-14.91L1.87-14.91Q1.48-15.31 1.10-15.63L1.10-15.63L1.10-15.63Q3.16-17.08 5.02-19.02L5.02-19.02L5.02-19.02Q3.92-20.76 2.06-22.42L2.06-22.42L3.57-23.58L3.57-23.58Q5.25-22.10 6.35-20.56L6.35-20.56L6.35-20.56Q7.66-22.10 8.50-23.66ZM17.78-7.19L17.78-11.17L13.34-11.17L13.34-7.19L17.78-7.19ZM19.75-7.19L24.21-7.19L24.21-11.17L19.75-11.17L19.75-7.19ZM19.75-5.31L19.75-1.22L24.21-1.22L24.21-5.31L19.75-5.31ZM17.78-5.31L13.34-5.31L13.34-1.22L17.78-1.22L17.78-5.31ZM13.34 2.20L11.37 2.20L11.37-13.11L26.27-13.11L26.27 2.06L24.21 2.06L24.21 0.70L13.34 0.70L13.34 2.20ZM23.43-24.24L23.43-20.13L27.35-20.13L27.35-18.15L23.43-18.15L23.43-14.38L21.34-14.38L21.34-18.15L16.27-18.15L16.27-14.38L14.18-14.38L14.18-18.15L10.09-18.15L10.09-20.13L14.18-20.13L14.18-24.24L16.27-24.24L16.27-20.13L21.34-20.13L21.34-24.24L23.43-24.24Z" transform="translate(58 25.52)"></path></g></svg></g> <!----></g><g id="shapge_ExoOcOx7Lz" transform="translate(146.94323144104803,229.25764192139738) rotate(0,0,0) scale(1.3100436681222707,1.3100436681222707)" filter="" style="cursor: move; opacity: 1;"><g><svg xmlns="http://www.w3.org/2000/svg" version="1.1" xmlns:xlink="http://www.w3.org/1999/xlink" overflow="hidden" style="top:0; left: 0" width="81" height="24" viewBox="0 0 81.06 24.695999999999998" preserveAspectRatio="none" data-parent="shapge_ExoOcOx7Lz"><rect fill="rgba(0,0,0,0)" width="81" height="24"></rect> <rect opacity="0"></rect><g transform="translate(0 0)" data-width="81.06"><path fill="#F39800" d="M5.82 0.27L5.82 0.27L5.82 0.27Q3.68 0.27 2.39-1.28L2.39-1.28L2.39-1.28Q1.11-2.83 1.11-5.69L1.11-5.69L1.11-5.69Q1.11-7.54 1.81-8.88L1.81-8.88L1.81-8.88Q2.50-10.23 3.62-10.96L3.62-10.96L3.62-10.96Q4.75-11.70 6.05-11.70L6.05-11.70L6.05-11.70Q7.06-11.70 7.79-11.34L7.79-11.34L7.79-11.34Q8.53-10.98 9.26-10.35L9.26-10.35L9.16-12.33L9.16-16.72L11.07-16.72L11.07 0L9.51 0L9.32-1.34L9.28-1.34L9.28-1.34Q8.61-0.67 7.73-0.20L7.73-0.20L7.73-0.20Q6.85 0.27 5.82 0.27ZM6.24-1.32L6.24-1.32L6.24-1.32Q7.81-1.32 9.16-2.90L9.16-2.90L9.16-8.88L9.16-8.88Q7.81-10.08 6.38-10.08L6.38-10.08L6.38-10.08Q5.00-10.08 4.04-8.87L4.04-8.87L4.04-8.87Q3.09-7.67 3.09-5.71L3.09-5.71L3.09-5.71Q3.09-3.65 3.91-2.49L3.91-2.49L3.91-2.49Q4.73-1.32 6.24-1.32Z" transform="translate(0 18.48)"></path><path fill="#F39800" d="M3.84 0L1.93 0L1.93-11.40L3.51-11.40L3.68-9.32L3.74-9.32L3.74-9.32Q4.35-10.42 5.18-11.06L5.18-11.06L5.18-11.06Q6.01-11.70 6.97-11.70L6.97-11.70L6.97-11.70Q7.73-11.70 8.19-11.45L8.19-11.45L7.83-9.77L7.83-9.77Q7.56-9.87 7.32-9.91L7.32-9.91L7.32-9.91Q7.08-9.95 6.72-9.95L6.72-9.95L6.72-9.95Q6.01-9.95 5.22-9.37L5.22-9.37L5.22-9.37Q4.43-8.78 3.84-7.33L3.84-7.33L3.84 0Z" transform="translate(13.020000000000001 18.48)"></path><path fill="#F39800" d="M4.56 0.27L4.56 0.27L4.56 0.27Q3.13 0.27 2.17-0.58L2.17-0.58L2.17-0.58Q1.22-1.43 1.22-2.96L1.22-2.96L1.22-2.96Q1.22-4.83 2.92-5.83L2.92-5.83L2.92-5.83Q4.62-6.83 8.23-7.22L8.23-7.22L8.23-7.22Q8.23-7.96 8.03-8.62L8.03-8.62L8.03-8.62Q7.83-9.28 7.33-9.69L7.33-9.69L7.33-9.69Q6.83-10.10 5.88-10.10L5.88-10.10L5.88-10.10Q4.89-10.10 4.02-9.73L4.02-9.73L4.02-9.73Q3.15-9.37 2.46-8.88L2.46-8.88L1.70-10.21L1.70-10.21Q2.50-10.73 3.66-11.21L3.66-11.21L3.66-11.21Q4.83-11.70 6.20-11.70L6.20-11.70L6.20-11.70Q8.27-11.70 9.21-10.42L9.21-10.42L9.21-10.42Q10.14-9.13 10.14-7.01L10.14-7.01L10.14 0L8.57 0L8.40-1.36L8.34-1.36L8.34-1.36Q7.52-0.67 6.56-0.20L6.56-0.20L6.56-0.20Q5.61 0.27 4.56 0.27ZM5.10-1.26L5.10-1.26L5.10-1.26Q5.94-1.26 6.68-1.65L6.68-1.65L6.68-1.65Q7.41-2.04 8.23-2.77L8.23-2.77L8.23-5.96L8.23-5.96Q5.40-5.63 4.24-4.91L4.24-4.91L4.24-4.91Q3.09-4.20 3.09-3.09L3.09-3.09L3.09-3.09Q3.09-2.12 3.68-1.69L3.68-1.69L3.68-1.69Q4.26-1.26 5.10-1.26Z" transform="translate(21.168 18.48)"></path><path fill="#F39800" d="M5.78 5.25L5.78 5.25L5.78 5.25Q3.68 5.25 2.36 4.45L2.36 4.45L2.36 4.45Q1.05 3.65 1.05 2.18L1.05 2.18L1.05 2.18Q1.05 0.74 2.75-0.40L2.75-0.40L2.75-0.48L2.75-0.48Q2.29-0.76 2.00-1.22L2.00-1.22L2.00-1.22Q1.70-1.68 1.70-2.35L1.70-2.35L1.70-2.35Q1.70-3.07 2.11-3.61L2.11-3.61L2.11-3.61Q2.52-4.16 2.98-4.47L2.98-4.47L2.98-4.56L2.98-4.56Q2.39-5.02 1.94-5.81L1.94-5.81L1.94-5.81Q1.49-6.59 1.49-7.62L1.49-7.62L1.49-7.62Q1.49-9.49 2.77-10.59L2.77-10.59L2.77-10.59Q4.05-11.70 5.78-11.70L5.78-11.70L5.78-11.70Q6.72-11.70 7.37-11.40L7.37-11.40L11.34-11.40L11.34-9.93L9.01-9.93L9.01-9.93Q9.93-9.07 9.93-7.58L9.93-7.58L9.93-7.58Q9.93-5.75 8.73-4.68L8.73-4.68L8.73-4.68Q7.52-3.61 5.78-3.61L5.78-3.61L5.78-3.61Q4.94-3.61 4.07-4.01L4.07-4.01L4.07-4.01Q3.76-3.76 3.55-3.44L3.55-3.44L3.55-3.44Q3.34-3.13 3.34-2.65L3.34-2.65L3.34-2.65Q3.34-2.10 3.76-1.75L3.76-1.75L3.76-1.75Q4.18-1.41 5.33-1.41L5.33-1.41L7.56-1.41L7.56-1.41Q11.53-1.41 11.53 1.30L11.53 1.30L11.53 1.30Q11.53 2.90 9.98 4.07L9.98 4.07L9.98 4.07Q8.42 5.25 5.78 5.25ZM5.78-4.91L5.78-4.91L5.78-4.91Q6.76-4.91 7.48-5.65L7.48-5.65L7.48-5.65Q8.19-6.38 8.19-7.62L8.19-7.62L8.19-7.62Q8.19-8.86 7.49-9.58L7.49-9.58L7.49-9.58Q6.78-10.29 5.78-10.29L5.78-10.29L5.78-10.29Q4.77-10.29 4.05-9.59L4.05-9.59L4.05-9.59Q3.34-8.88 3.34-7.62L3.34-7.62L3.34-7.62Q3.34-6.38 4.06-5.65L4.06-5.65L4.06-5.65Q4.79-4.91 5.78-4.91ZM6.05 3.95L6.05 3.95L6.05 3.95Q7.69 3.95 8.68 3.22L8.68 3.22L8.68 3.22Q9.68 2.50 9.68 1.60L9.68 1.60L9.68 1.60Q9.68 0.80 9.08 0.49L9.08 0.49L9.08 0.49Q8.48 0.19 7.35 0.19L7.35 0.19L5.38 0.19L5.38 0.19Q4.75 0.19 3.91 0L3.91 0L3.91 0Q2.73 0.92 2.73 1.93L2.73 1.93L2.73 1.93Q2.73 2.83 3.61 3.39L3.61 3.39L3.61 3.39Q4.49 3.95 6.05 3.95Z" transform="translate(33.012 18.48)"></path><path fill="#F39800" d="M6.53 0.27L6.53 0.27L6.53 0.27Q5.02 0.27 3.78-0.43L3.78-0.43L3.78-0.43Q2.54-1.13 1.81-2.48L1.81-2.48L1.81-2.48Q1.07-3.82 1.07-5.69L1.07-5.69L1.07-5.69Q1.07-7.54 1.81-8.88L1.81-8.88L1.81-8.88Q2.54-10.23 3.72-10.96L3.72-10.96L3.72-10.96Q4.89-11.70 6.22-11.70L6.22-11.70L6.22-11.70Q8.40-11.70 9.58-10.24L9.58-10.24L9.58-10.24Q10.75-8.78 10.75-6.34L10.75-6.34L10.75-6.34Q10.75-5.71 10.67-5.25L10.67-5.25L2.98-5.25L2.98-5.25Q3.11-3.40 4.13-2.33L4.13-2.33L4.13-2.33Q5.15-1.26 6.76-1.26L6.76-1.26L6.76-1.26Q7.60-1.26 8.29-1.50L8.29-1.50L8.29-1.50Q8.99-1.74 9.62-2.16L9.62-2.16L10.31-0.90L10.31-0.90Q9.55-0.40 8.63-0.06L8.63-0.06L8.63-0.06Q7.71 0.27 6.53 0.27ZM2.96-6.62L2.96-6.62L9.07-6.62L9.07-6.62Q9.07-10.08 6.24-10.16L6.24-10.16L6.24-10.16Q5.02-10.16 4.10-9.24L4.10-9.24L4.10-9.24Q3.17-8.32 2.96-6.62Z" transform="translate(44.835 18.48)"></path><path fill="#F39800" d="M3.84 0L1.93 0L1.93-11.40L3.51-11.40L3.68-9.77L3.74-9.77L3.74-9.77Q4.56-10.58 5.48-11.14L5.48-11.14L5.48-11.14Q6.41-11.70 7.56-11.70L7.56-11.70L7.56-11.70Q9.37-11.70 10.21-10.55L10.21-10.55L10.21-10.55Q11.05-9.41 11.05-7.22L11.05-7.22L11.05 0L9.13 0L9.13-6.97L9.13-6.97Q9.13-8.59 8.62-9.30L8.62-9.30L8.62-9.30Q8.11-10.02 6.97-10.02L6.97-10.02L6.97-10.02Q6.09-10.02 5.39-9.58L5.39-9.58L5.39-9.58Q4.68-9.13 3.84-8.27L3.84-8.27L3.84 0Z" transform="translate(56.469 18.48)"></path><path fill="#F39800" d="M3.95 0.27L3.95 0.27L3.95 0.27Q2.88 0.27 2.40-0.39L2.40-0.39L2.40-0.39Q1.93-1.05 1.93-2.27L1.93-2.27L1.93-16.72L3.84-16.72L3.84-2.14L3.84-2.14Q3.84-1.70 4.01-1.51L4.01-1.51L4.01-1.51Q4.18-1.32 4.39-1.32L4.39-1.32L4.39-1.32Q4.47-1.32 4.56-1.33L4.56-1.33L4.56-1.33Q4.64-1.34 4.79-1.36L4.79-1.36L5.06 0.11L5.06 0.11Q4.70 0.27 3.95 0.27Z" transform="translate(69.3 18.48)"></path><path fill="#F39800" d="M3.84 0L1.93 0L1.93-11.40L3.84-11.40L3.84 0ZM2.90-13.76L2.90-13.76L2.90-13.76Q2.33-13.76 1.95-14.11L1.95-14.11L1.95-14.11Q1.58-14.47 1.58-14.99L1.58-14.99L1.58-14.99Q1.58-16.17 2.90-16.23L2.90-16.23L2.90-16.23Q3.47-16.23 3.84-15.91L3.84-15.91L3.84-15.91Q4.22-15.58 4.22-14.99L4.22-14.99L4.22-14.99Q4.22-14.47 3.84-14.11L3.84-14.11L3.84-14.11Q3.47-13.76 2.90-13.76Z" transform="translate(75.285 18.48)"></path></g></svg></g> <!----></g>  <!----></svg>